{
	"patcher" : 	{
		"fileversion" : 1,
		"appversion" : 		{
			"major" : 7,
			"minor" : 3,
			"revision" : 4,
			"architecture" : "x64",
			"modernui" : 1
		}
,
		"rect" : [ 676.0, -1555.0, 907.0, 279.0 ],
		"bglocked" : 0,
		"openinpresentation" : 1,
		"default_fontsize" : 12.0,
		"default_fontface" : 0,
		"default_fontname" : "Arial",
		"gridonopen" : 1,
		"gridsize" : [ 15.0, 15.0 ],
		"gridsnaponopen" : 1,
		"objectsnaponopen" : 1,
		"statusbarvisible" : 2,
		"toolbarvisible" : 0,
		"lefttoolbarpinned" : 0,
		"toptoolbarpinned" : 0,
		"righttoolbarpinned" : 0,
		"bottomtoolbarpinned" : 0,
		"toolbars_unpinned_last_save" : 0,
		"tallnewobj" : 0,
		"boxanimatetime" : 200,
		"enablehscroll" : 1,
		"enablevscroll" : 1,
		"devicewidth" : 0.0,
		"description" : "",
		"digest" : "",
		"tags" : "",
		"style" : "",
		"subpatcher_template" : "",
		"workspacedisabled" : 1,
		"boxes" : [ 			{
				"box" : 				{
					"id" : "obj-12",
					"maxclass" : "newobj",
					"numinlets" : 0,
					"numoutlets" : 1,
					"outlettype" : [ "" ],
					"patching_rect" : [ 827.0, 413.0, 79.0, 22.0 ],
					"presentation" : 1,
					"presentation_rect" : [ 797.0, 207.0, 79.0, 22.0 ],
					"style" : "",
					"text" : "p_pistetriche"
				}

			}
, 			{
				"box" : 				{
					"args" : [ "#1", 9 ],
					"bgmode" : 0,
					"border" : 0,
					"clickthrough" : 0,
					"enablehscroll" : 0,
					"enablevscroll" : 0,
					"id" : "obj-6",
					"lockeddragscroll" : 1,
					"maxclass" : "bpatcher",
					"name" : "VideoTricheW212.maxpat",
					"numinlets" : 3,
					"numoutlets" : 2,
					"offset" : [ 0.0, 0.0 ],
					"outlettype" : [ "", "" ],
					"patching_rect" : [ 798.0, 49.0, 129.0, 164.0 ],
					"presentation" : 1,
					"presentation_rect" : [ 772.0, 0.0, 129.0, 164.0 ],
					"viewvisibility" : 1
				}

			}
, 			{
				"box" : 				{
					"id" : "obj-8",
					"maxclass" : "jit.pwindow",
					"numinlets" : 1,
					"numoutlets" : 2,
					"outlettype" : [ "", "" ],
					"patching_rect" : [ 37.0, 447.0, 80.0, 60.0 ],
					"presentation" : 1,
					"presentation_rect" : [ 74.0, 173.5, 84.166672, 67.0 ]
				}

			}
, 			{
				"box" : 				{
					"color" : [ 0.784314, 0.145098, 0.023529, 1.0 ],
					"fontsize" : 10.0,
					"id" : "obj-5",
					"maxclass" : "newobj",
					"numinlets" : 0,
					"numoutlets" : 1,
					"outlettype" : [ "" ],
					"patcher" : 					{
						"fileversion" : 1,
						"appversion" : 						{
							"major" : 7,
							"minor" : 3,
							"revision" : 4,
							"architecture" : "x64",
							"modernui" : 1
						}
,
						"rect" : [ 413.0, -985.0, 136.0, 59.0 ],
						"bglocked" : 0,
						"openinpresentation" : 0,
						"default_fontsize" : 12.0,
						"default_fontface" : 0,
						"default_fontname" : "Arial",
						"gridonopen" : 1,
						"gridsize" : [ 15.0, 15.0 ],
						"gridsnaponopen" : 1,
						"objectsnaponopen" : 1,
						"statusbarvisible" : 2,
						"toolbarvisible" : 1,
						"lefttoolbarpinned" : 0,
						"toptoolbarpinned" : 0,
						"righttoolbarpinned" : 0,
						"bottomtoolbarpinned" : 0,
						"toolbars_unpinned_last_save" : 0,
						"tallnewobj" : 0,
						"boxanimatetime" : 200,
						"enablehscroll" : 1,
						"enablevscroll" : 1,
						"devicewidth" : 0.0,
						"description" : "",
						"digest" : "",
						"tags" : "",
						"style" : "",
						"subpatcher_template" : "",
						"boxes" : [ 							{
								"box" : 								{
									"bgcolor" : [ 0.784314, 0.145098, 0.023529, 1.0 ],
									"bgcolor2" : [ 0.52549, 0.062745, 0.003922, 1.0 ],
									"bgfillcolor_angle" : 270.0,
									"bgfillcolor_autogradient" : 0.0,
									"bgfillcolor_color" : [ 0.290196, 0.309804, 0.301961, 1.0 ],
									"bgfillcolor_color1" : [ 0.784314, 0.145098, 0.023529, 1.0 ],
									"bgfillcolor_color2" : [ 0.52549, 0.062745, 0.003922, 1.0 ],
									"bgfillcolor_proportion" : 0.39,
									"bgfillcolor_type" : "gradient",
									"fontname" : "Arial",
									"fontsize" : 13.0,
									"gradient" : 1,
									"id" : "obj-3",
									"maxclass" : "message",
									"numinlets" : 2,
									"numoutlets" : 1,
									"outlettype" : [ "" ],
									"patching_rect" : [ 94.0, 4.0, 39.0, 23.0 ],
									"style" : "",
									"text" : "write"
								}

							}
, 							{
								"box" : 								{
									"comment" : "",
									"id" : "obj-2",
									"index" : 1,
									"maxclass" : "outlet",
									"numinlets" : 1,
									"numoutlets" : 0,
									"patching_rect" : [ 8.0, 127.0, 30.0, 30.0 ],
									"style" : ""
								}

							}
, 							{
								"box" : 								{
									"id" : "obj-22",
									"maxclass" : "message",
									"numinlets" : 2,
									"numoutlets" : 1,
									"outlettype" : [ "" ],
									"patching_rect" : [ 8.0, 61.0, 79.0, 22.0 ],
									"style" : "",
									"text" : "name la_joie"
								}

							}
, 							{
								"box" : 								{
									"id" : "obj-21",
									"maxclass" : "message",
									"numinlets" : 2,
									"numoutlets" : 1,
									"outlettype" : [ "" ],
									"patching_rect" : [ 8.0, 89.0, 72.0, 22.0 ],
									"style" : "",
									"text" : "name lajoie"
								}

							}
, 							{
								"box" : 								{
									"color" : [ 0.896739, 0.033142, 0.043714, 1.0 ],
									"fontsize" : 11.0,
									"id" : "obj-10",
									"maxclass" : "newobj",
									"numinlets" : 1,
									"numoutlets" : 4,
									"outlettype" : [ "", "", "", "" ],
									"patching_rect" : [ 8.0, 29.0, 93.0, 21.0 ],
									"presentation" : 1,
									"presentation_rect" : [ 314.0, 341.0, 86.0, 21.0 ],
									"saved_object_attributes" : 									{
										"embed" : 0
									}
,
									"style" : "",
									"text" : "coll #1_lesfilms"
								}

							}
, 							{
								"box" : 								{
									"color" : [ 0.984314, 0.984314, 0.019608, 1.0 ],
									"fontname" : "Arial",
									"fontsize" : 11.0,
									"id" : "obj-57",
									"maxclass" : "newobj",
									"numinlets" : 1,
									"numoutlets" : 4,
									"outlettype" : [ "", "", "", "" ],
									"patching_rect" : [ 8.0, 6.0, 81.0, 21.0 ],
									"presentation" : 1,
									"presentation_rect" : [ 314.0, 317.0, 81.0, 21.0 ],
									"saved_object_attributes" : 									{
										"embed" : 0
									}
,
									"style" : "",
									"text" : "coll #1_macoll"
								}

							}
 ],
						"lines" : [ 							{
								"patchline" : 								{
									"destination" : [ "obj-2", 0 ],
									"source" : [ "obj-21", 0 ]
								}

							}
, 							{
								"patchline" : 								{
									"destination" : [ "obj-2", 0 ],
									"source" : [ "obj-22", 0 ]
								}

							}
, 							{
								"patchline" : 								{
									"destination" : [ "obj-10", 0 ],
									"midpoints" : [ 103.5, 27.5, 17.5, 27.5 ],
									"source" : [ "obj-3", 0 ]
								}

							}
 ]
					}
,
					"patching_rect" : [ 316.5, 229.0, 56.0, 20.0 ],
					"presentation" : 1,
					"presentation_rect" : [ 1.0, 209.0, 68.0, 20.0 ],
					"saved_object_attributes" : 					{
						"description" : "",
						"digest" : "",
						"globalpatchername" : "",
						"style" : "",
						"tags" : ""
					}
,
					"style" : "",
					"text" : "p db_films"
				}

			}
, 			{
				"box" : 				{
					"args" : [ "#1", 4 ],
					"bgmode" : 0,
					"border" : 0,
					"clickthrough" : 0,
					"enablehscroll" : 0,
					"enablevscroll" : 0,
					"id" : "obj-15",
					"lockeddragscroll" : 0,
					"maxclass" : "bpatcher",
					"name" : "VideoPlayerW212.maxpat",
					"numinlets" : 2,
					"numoutlets" : 2,
					"offset" : [ 0.0, 0.0 ],
					"outlettype" : [ "", "" ],
					"patching_rect" : [ 669.0, 49.0, 127.0, 142.0 ],
					"presentation" : 1,
					"presentation_rect" : [ 644.0, 0.0, 131.166672, 142.0 ],
					"varname" : "Video_Player[3]",
					"viewvisibility" : 1
				}

			}
, 			{
				"box" : 				{
					"args" : [ "#1", 10 ],
					"bgmode" : 0,
					"border" : 0,
					"clickthrough" : 0,
					"enablehscroll" : 0,
					"enablevscroll" : 0,
					"id" : "obj-28",
					"lockeddragscroll" : 0,
					"maxclass" : "bpatcher",
					"name" : "Montage_MosaiK.maxpat",
					"numinlets" : 1,
					"numoutlets" : 1,
					"offset" : [ 0.0, 0.0 ],
					"outlettype" : [ "jit_matrix" ],
					"patching_rect" : [ 152.0, 401.0, 610.0, 126.0 ],
					"presentation" : 1,
					"presentation_rect" : [ 165.166672, 144.0, 610.0, 126.0 ],
					"varname" : "Montage_MosaiK",
					"viewvisibility" : 1
				}

			}
, 			{
				"box" : 				{
					"color" : [ 0.317647, 0.709804, 0.321569, 1.0 ],
					"fontname" : "Arial",
					"fontsize" : 11.0,
					"id" : "obj-14",
					"maxclass" : "newobj",
					"numinlets" : 1,
					"numoutlets" : 2,
					"outlettype" : [ "bang", "" ],
					"patching_rect" : [ 31.0, 348.0, 255.0, 21.0 ],
					"presentation" : 1,
					"presentation_rect" : [ 1.0, 250.0, 347.0, 21.0 ],
					"style" : "",
					"text" : "jit.window OMax_Video @rect 1000 600 1320 840"
				}

			}
, 			{
				"box" : 				{
					"color" : [ 0.896739, 0.033142, 0.043714, 1.0 ],
					"fontsize" : 11.0,
					"id" : "obj-10",
					"maxclass" : "newobj",
					"numinlets" : 1,
					"numoutlets" : 4,
					"outlettype" : [ "", "", "", "" ],
					"patching_rect" : [ 997.0, 317.0, 93.0, 21.0 ],
					"saved_object_attributes" : 					{
						"embed" : 0
					}
,
					"style" : "",
					"text" : "coll #1_lesfilms"
				}

			}
, 			{
				"box" : 				{
					"fontname" : "Arial",
					"fontsize" : 8.0,
					"id" : "obj-25",
					"linecount" : 2,
					"maxclass" : "comment",
					"numinlets" : 1,
					"numoutlets" : 0,
					"patching_rect" : [ 513.0, 294.0, 80.0, 24.0 ],
					"presentation" : 1,
					"presentation_linecount" : 2,
					"presentation_rect" : [ 5.0, 188.5, 67.0, 24.0 ],
					"style" : "",
					"text" : "base OSC chan\n(default 10000)"
				}

			}
, 			{
				"box" : 				{
					"fontname" : "Arial",
					"fontsize" : 8.0,
					"id" : "obj-20",
					"maxclass" : "number",
					"numinlets" : 1,
					"numoutlets" : 2,
					"outlettype" : [ "", "bang" ],
					"parameter_enable" : 0,
					"patching_rect" : [ 505.0, 271.0, 65.0, 17.0 ],
					"presentation" : 1,
					"presentation_rect" : [ 7.0, 173.5, 59.0, 17.0 ],
					"style" : ""
				}

			}
, 			{
				"box" : 				{
					"angle" : 0.0,
					"bgcolor" : [ 0.960784, 0.439216, 0.478431, 1.0 ],
					"id" : "obj-23",
					"maxclass" : "panel",
					"mode" : 0,
					"numinlets" : 1,
					"numoutlets" : 0,
					"patching_rect" : [ 502.0, 264.0, 117.0, 54.0 ],
					"presentation" : 1,
					"presentation_rect" : [ 5.0, 172.5, 64.0, 40.0 ],
					"proportion" : 0.39,
					"style" : ""
				}

			}
, 			{
				"box" : 				{
					"fontname" : "Arial",
					"fontsize" : 10.0,
					"id" : "obj-16",
					"maxclass" : "newobj",
					"numinlets" : 1,
					"numoutlets" : 1,
					"outlettype" : [ "" ],
					"patching_rect" : [ 505.0, 229.0, 84.0, 20.0 ],
					"style" : "",
					"text" : "loadmess 10000"
				}

			}
, 			{
				"box" : 				{
					"args" : [ "#1", 1 ],
					"bgmode" : 0,
					"border" : 0,
					"clickthrough" : 0,
					"enablehscroll" : 0,
					"enablevscroll" : 0,
					"id" : "obj-13",
					"lockeddragscroll" : 0,
					"maxclass" : "bpatcher",
					"name" : "AcquisitionW212.maxpat",
					"numinlets" : 2,
					"numoutlets" : 0,
					"offset" : [ 0.0, 0.0 ],
					"patching_rect" : [ 19.0, 46.0, 256.0, 143.0 ],
					"presentation" : 1,
					"presentation_rect" : [ 3.0, 1.0, 259.0, 144.0 ],
					"viewvisibility" : 1
				}

			}
, 			{
				"box" : 				{
					"color" : [ 0.984314, 0.984314, 0.019608, 1.0 ],
					"fontname" : "Arial",
					"fontsize" : 11.0,
					"id" : "obj-37",
					"maxclass" : "newobj",
					"numinlets" : 0,
					"numoutlets" : 1,
					"outlettype" : [ "" ],
					"patching_rect" : [ 997.0, 271.0, 83.0, 21.0 ],
					"style" : "",
					"text" : "r etat_pistes"
				}

			}
, 			{
				"box" : 				{
					"color" : [ 0.984314, 0.984314, 0.019608, 1.0 ],
					"fontname" : "Arial",
					"fontsize" : 11.0,
					"id" : "obj-57",
					"maxclass" : "newobj",
					"numinlets" : 1,
					"numoutlets" : 4,
					"outlettype" : [ "", "", "", "" ],
					"patching_rect" : [ 997.0, 294.0, 81.0, 21.0 ],
					"saved_object_attributes" : 					{
						"embed" : 0
					}
,
					"style" : "",
					"text" : "coll #1_macoll"
				}

			}
, 			{
				"box" : 				{
					"fontname" : "Arial",
					"fontsize" : 12.0,
					"id" : "obj-29",
					"linecount" : 2,
					"maxclass" : "comment",
					"numinlets" : 1,
					"numoutlets" : 0,
					"patching_rect" : [ 379.0, 355.0, 330.0, 33.0 ],
					"style" : "",
					"text" : "Par convention, le NOIR est toujours le dernier lecteur. Son indice sert d'argument aux programmes de montage."
				}

			}
, 			{
				"box" : 				{
					"args" : [ "#1" ],
					"bgmode" : 1,
					"border" : 0,
					"clickthrough" : 1,
					"enablehscroll" : 0,
					"enablevscroll" : 0,
					"id" : "obj-26",
					"lockeddragscroll" : 0,
					"maxclass" : "bpatcher",
					"name" : "VideoNoirW212.maxpat",
					"numinlets" : 1,
					"numoutlets" : 3,
					"offset" : [ 0.0, 0.0 ],
					"outlettype" : [ "", "", "" ],
					"patching_rect" : [ 505.0, 329.0, 209.0, 21.0 ],
					"presentation" : 1,
					"presentation_rect" : [ 1.0, 148.0, 157.166672, 24.0 ],
					"varname" : "Video_Noir",
					"viewvisibility" : 1
				}

			}
, 			{
				"box" : 				{
					"fontname" : "Arial",
					"fontsize" : 12.0,
					"id" : "obj-11",
					"maxclass" : "newobj",
					"numinlets" : 0,
					"numoutlets" : 1,
					"outlettype" : [ "" ],
					"patching_rect" : [ 778.0, 6.0, 92.0, 22.0 ],
					"style" : "",
					"text" : "r liste_courants"
				}

			}
, 			{
				"box" : 				{
					"fontname" : "Arial",
					"fontsize" : 9.0,
					"id" : "obj-33",
					"maxclass" : "newobj",
					"numinlets" : 1,
					"numoutlets" : 0,
					"patching_rect" : [ 669.0, 249.0, 69.0, 19.0 ],
					"style" : "",
					"text" : "s etat_pistes"
				}

			}
, 			{
				"box" : 				{
					"args" : [ "#1", 3 ],
					"bgmode" : 0,
					"border" : 0,
					"clickthrough" : 0,
					"enablehscroll" : 0,
					"enablevscroll" : 0,
					"id" : "obj-4",
					"lockeddragscroll" : 0,
					"maxclass" : "bpatcher",
					"name" : "VideoPlayerW212.maxpat",
					"numinlets" : 2,
					"numoutlets" : 2,
					"offset" : [ 0.0, 0.0 ],
					"outlettype" : [ "", "" ],
					"patching_rect" : [ 540.0, 49.0, 127.0, 142.0 ],
					"presentation" : 1,
					"presentation_rect" : [ 517.0, 0.0, 127.0, 142.0 ],
					"varname" : "Video_Player[2]",
					"viewvisibility" : 1
				}

			}
, 			{
				"box" : 				{
					"args" : [ "#1", 2 ],
					"bgmode" : 0,
					"border" : 0,
					"clickthrough" : 0,
					"enablehscroll" : 0,
					"enablevscroll" : 0,
					"id" : "obj-3",
					"lockeddragscroll" : 0,
					"maxclass" : "bpatcher",
					"name" : "VideoPlayerW212.maxpat",
					"numinlets" : 2,
					"numoutlets" : 2,
					"offset" : [ 0.0, 0.0 ],
					"outlettype" : [ "", "" ],
					"patching_rect" : [ 411.0, 48.0, 127.0, 142.0 ],
					"presentation" : 1,
					"presentation_rect" : [ 390.0, 1.0, 127.0, 143.0 ],
					"varname" : "Video_Player[1]",
					"viewvisibility" : 1
				}

			}
, 			{
				"box" : 				{
					"args" : [ "#1", 1 ],
					"bgmode" : 0,
					"border" : 0,
					"clickthrough" : 0,
					"enablehscroll" : 0,
					"enablevscroll" : 0,
					"id" : "obj-2",
					"lockeddragscroll" : 0,
					"maxclass" : "bpatcher",
					"name" : "VideoPlayerW212.maxpat",
					"numinlets" : 2,
					"numoutlets" : 2,
					"offset" : [ 0.0, 0.0 ],
					"outlettype" : [ "", "" ],
					"patching_rect" : [ 279.0, 47.0, 129.0, 142.0 ],
					"presentation" : 1,
					"presentation_rect" : [ 262.0, 1.0, 128.0, 144.0 ],
					"varname" : "Video_Player",
					"viewvisibility" : 1
				}

			}
, 			{
				"box" : 				{
					"fontname" : "Arial",
					"fontsize" : 12.0,
					"id" : "obj-1",
					"maxclass" : "newobj",
					"numinlets" : 1,
					"numoutlets" : 0,
					"patching_rect" : [ 1059.0, 228.0, 69.0, 22.0 ],
					"style" : "",
					"text" : "print DBRL"
				}

			}
, 			{
				"box" : 				{
					"bgcolor" : [ 0.482353, 0.941176, 0.482353, 1.0 ],
					"color" : [ 0.317647, 0.709804, 0.321569, 1.0 ],
					"fontname" : "Arial",
					"fontsize" : 10.0,
					"id" : "obj-7",
					"maxclass" : "newobj",
					"numinlets" : 0,
					"numoutlets" : 2,
					"outlettype" : [ "", "" ],
					"patcher" : 					{
						"fileversion" : 1,
						"appversion" : 						{
							"major" : 7,
							"minor" : 3,
							"revision" : 4,
							"architecture" : "x64",
							"modernui" : 1
						}
,
						"rect" : [ 299.0, -886.0, 211.0, 86.0 ],
						"bgcolor" : [ 0.32, 0.71, 0.32, 1.0 ],
						"bglocked" : 0,
						"openinpresentation" : 1,
						"default_fontsize" : 12.0,
						"default_fontface" : 0,
						"default_fontname" : "Arial",
						"gridonopen" : 1,
						"gridsize" : [ 15.0, 15.0 ],
						"gridsnaponopen" : 1,
						"objectsnaponopen" : 1,
						"statusbarvisible" : 2,
						"toolbarvisible" : 1,
						"lefttoolbarpinned" : 0,
						"toptoolbarpinned" : 0,
						"righttoolbarpinned" : 0,
						"bottomtoolbarpinned" : 0,
						"toolbars_unpinned_last_save" : 0,
						"tallnewobj" : 0,
						"boxanimatetime" : 200,
						"enablehscroll" : 1,
						"enablevscroll" : 1,
						"devicewidth" : 0.0,
						"description" : "",
						"digest" : "",
						"tags" : "",
						"style" : "",
						"subpatcher_template" : "",
						"boxes" : [ 							{
								"box" : 								{
									"comment" : "",
									"hidden" : 1,
									"id" : "obj-25",
									"index" : 2,
									"maxclass" : "outlet",
									"numinlets" : 1,
									"numoutlets" : 0,
									"patching_rect" : [ 253.0, 255.0, 27.0, 27.0 ],
									"style" : ""
								}

							}
, 							{
								"box" : 								{
									"fontname" : "Arial",
									"fontsize" : 9.0,
									"id" : "obj-24",
									"maxclass" : "message",
									"numinlets" : 2,
									"numoutlets" : 1,
									"outlettype" : [ "" ],
									"patching_rect" : [ 157.0, 36.0, 25.0, 19.0 ],
									"presentation" : 1,
									"presentation_rect" : [ 113.0, 9.0, 25.0, 19.0 ],
									"style" : "",
									"text" : "420"
								}

							}
, 							{
								"box" : 								{
									"fontface" : 0,
									"fontname" : "Arial",
									"fontsize" : 9.0,
									"hidden" : 1,
									"id" : "obj-1",
									"maxclass" : "newobj",
									"numinlets" : 1,
									"numoutlets" : 3,
									"outlettype" : [ "int", "int", "int" ],
									"patching_rect" : [ 423.0, 60.0, 87.0, 19.0 ],
									"style" : "",
									"text" : "unpack 3 600 1000"
								}

							}
, 							{
								"box" : 								{
									"fontname" : "Arial",
									"fontsize" : 9.0,
									"id" : "obj-2",
									"maxclass" : "comment",
									"numinlets" : 1,
									"numoutlets" : 0,
									"patching_rect" : [ 47.0, 120.0, 46.0, 17.0 ],
									"presentation" : 1,
									"presentation_rect" : [ 8.0, 45.0, 46.0, 17.0 ],
									"style" : "",
									"text" : "WIDTH",
									"textcolor" : [ 1.0, 0.890196, 0.090196, 1.0 ]
								}

							}
, 							{
								"box" : 								{
									"fontname" : "Arial",
									"fontsize" : 9.0,
									"id" : "obj-3",
									"maxclass" : "comment",
									"numinlets" : 1,
									"numoutlets" : 0,
									"patching_rect" : [ 46.0, 81.0, 31.0, 17.0 ],
									"presentation" : 1,
									"presentation_rect" : [ 8.0, 26.0, 31.0, 17.0 ],
									"style" : "",
									"text" : "LEFT",
									"textcolor" : [ 1.0, 0.890196, 0.090196, 1.0 ]
								}

							}
, 							{
								"box" : 								{
									"fontface" : 0,
									"fontname" : "Arial",
									"fontsize" : 9.0,
									"hidden" : 1,
									"id" : "obj-4",
									"maxclass" : "newobj",
									"numinlets" : 1,
									"numoutlets" : 1,
									"outlettype" : [ "" ],
									"patching_rect" : [ 423.0, 33.0, 97.0, 19.0 ],
									"style" : "",
									"text" : "loadmess 2 600 1000"
								}

							}
, 							{
								"box" : 								{
									"fontname" : "Arial",
									"fontsize" : 9.0,
									"hidden" : 1,
									"id" : "obj-5",
									"maxclass" : "newobj",
									"numinlets" : 3,
									"numoutlets" : 2,
									"outlettype" : [ "", "" ],
									"patcher" : 									{
										"fileversion" : 1,
										"appversion" : 										{
											"major" : 7,
											"minor" : 3,
											"revision" : 4,
											"architecture" : "x64",
											"modernui" : 1
										}
,
										"rect" : [ 560.0, -555.0, 600.0, 426.0 ],
										"bglocked" : 0,
										"openinpresentation" : 0,
										"default_fontsize" : 12.0,
										"default_fontface" : 0,
										"default_fontname" : "Arial",
										"gridonopen" : 1,
										"gridsize" : [ 15.0, 15.0 ],
										"gridsnaponopen" : 1,
										"objectsnaponopen" : 1,
										"statusbarvisible" : 2,
										"toolbarvisible" : 1,
										"lefttoolbarpinned" : 0,
										"toptoolbarpinned" : 0,
										"righttoolbarpinned" : 0,
										"bottomtoolbarpinned" : 0,
										"toolbars_unpinned_last_save" : 0,
										"tallnewobj" : 0,
										"boxanimatetime" : 200,
										"enablehscroll" : 1,
										"enablevscroll" : 1,
										"devicewidth" : 0.0,
										"description" : "",
										"digest" : "",
										"tags" : "",
										"style" : "",
										"subpatcher_template" : "",
										"boxes" : [ 											{
												"box" : 												{
													"fontsize" : 12.0,
													"id" : "obj-94",
													"maxclass" : "newobj",
													"numinlets" : 2,
													"numoutlets" : 2,
													"outlettype" : [ "", "" ],
													"patcher" : 													{
														"fileversion" : 1,
														"appversion" : 														{
															"major" : 7,
															"minor" : 3,
															"revision" : 4,
															"architecture" : "x64",
															"modernui" : 1
														}
,
														"rect" : [ 158.0, 217.0, 640.0, 480.0 ],
														"bglocked" : 0,
														"openinpresentation" : 0,
														"default_fontsize" : 12.0,
														"default_fontface" : 0,
														"default_fontname" : "Arial",
														"gridonopen" : 1,
														"gridsize" : [ 15.0, 15.0 ],
														"gridsnaponopen" : 1,
														"objectsnaponopen" : 1,
														"statusbarvisible" : 2,
														"toolbarvisible" : 1,
														"lefttoolbarpinned" : 0,
														"toptoolbarpinned" : 0,
														"righttoolbarpinned" : 0,
														"bottomtoolbarpinned" : 0,
														"toolbars_unpinned_last_save" : 0,
														"tallnewobj" : 0,
														"boxanimatetime" : 200,
														"enablehscroll" : 1,
														"enablevscroll" : 1,
														"devicewidth" : 0.0,
														"description" : "",
														"digest" : "",
														"tags" : "",
														"style" : "",
														"subpatcher_template" : "",
														"boxes" : [ 															{
																"box" : 																{
																	"id" : "obj-3",
																	"maxclass" : "newobj",
																	"numinlets" : 2,
																	"numoutlets" : 2,
																	"outlettype" : [ "", "" ],
																	"patching_rect" : [ 50.0, 83.0, 61.0, 22.0 ],
																	"style" : "",
																	"text" : "route dim"
																}

															}
, 															{
																"box" : 																{
																	"comment" : "",
																	"id" : "obj-1",
																	"index" : 2,
																	"maxclass" : "outlet",
																	"numinlets" : 1,
																	"numoutlets" : 0,
																	"patching_rect" : [ 180.5, 404.0, 30.0, 30.0 ],
																	"style" : ""
																}

															}
, 															{
																"box" : 																{
																	"id" : "obj-4",
																	"maxclass" : "newobj",
																	"numinlets" : 1,
																	"numoutlets" : 2,
																	"outlettype" : [ "bang", "int" ],
																	"patching_rect" : [ 49.0, 276.0, 56.0, 22.0 ],
																	"style" : "",
																	"text" : "t b i"
																}

															}
, 															{
																"box" : 																{
																	"id" : "obj-5",
																	"maxclass" : "newobj",
																	"numinlets" : 2,
																	"numoutlets" : 1,
																	"outlettype" : [ "int" ],
																	"patching_rect" : [ 49.0, 303.0, 137.333252, 22.0 ],
																	"style" : "",
																	"text" : "0"
																}

															}
, 															{
																"box" : 																{
																	"id" : "obj-6",
																	"maxclass" : "newobj",
																	"numinlets" : 3,
																	"numoutlets" : 1,
																	"outlettype" : [ "" ],
																	"patching_rect" : [ 49.0, 248.0, 116.916626, 22.0 ],
																	"style" : "",
																	"text" : "expr $f2 * $f3 / $f1"
																}

															}
, 															{
																"box" : 																{
																	"id" : "obj-8",
																	"maxclass" : "newobj",
																	"numinlets" : 1,
																	"numoutlets" : 1,
																	"outlettype" : [ "int" ],
																	"patching_rect" : [ 128.5, 142.0, 37.0, 22.0 ],
																	"style" : "",
																	"text" : "t 960"
																}

															}
, 															{
																"box" : 																{
																	"id" : "obj-10",
																	"maxclass" : "newobj",
																	"numinlets" : 2,
																	"numoutlets" : 2,
																	"outlettype" : [ "bang", "" ],
																	"patching_rect" : [ 128.5, 112.0, 87.5, 22.0 ],
																	"style" : "",
																	"text" : "sel 0"
																}

															}
, 															{
																"box" : 																{
																	"id" : "obj-11",
																	"maxclass" : "newobj",
																	"numinlets" : 2,
																	"numoutlets" : 2,
																	"outlettype" : [ "", "" ],
																	"patching_rect" : [ 128.5, 83.0, 123.5, 22.0 ],
																	"style" : "",
																	"text" : "route int"
																}

															}
, 															{
																"box" : 																{
																	"id" : "obj-12",
																	"maxclass" : "newobj",
																	"numinlets" : 1,
																	"numoutlets" : 1,
																	"outlettype" : [ "" ],
																	"patching_rect" : [ 222.0, 49.0, 85.0, 22.0 ],
																	"style" : "",
																	"text" : "loadmess 960"
																}

															}
, 															{
																"box" : 																{
																	"id" : "obj-13",
																	"maxclass" : "button",
																	"numinlets" : 1,
																	"numoutlets" : 1,
																	"outlettype" : [ "bang" ],
																	"patching_rect" : [ 222.0, 10.0, 24.0, 24.0 ],
																	"style" : ""
																}

															}
, 															{
																"box" : 																{
																	"id" : "obj-14",
																	"maxclass" : "newobj",
																	"numinlets" : 1,
																	"numoutlets" : 3,
																	"outlettype" : [ "bang", "float", "int" ],
																	"patching_rect" : [ 128.5, 174.0, 57.833252, 22.0 ],
																	"style" : "",
																	"text" : "t b f i"
																}

															}
, 															{
																"box" : 																{
																	"id" : "obj-18",
																	"maxclass" : "newobj",
																	"numinlets" : 1,
																	"numoutlets" : 1,
																	"outlettype" : [ "" ],
																	"patching_rect" : [ 49.0, 365.0, 79.0, 22.0 ],
																	"style" : "",
																	"text" : "prepend size"
																}

															}
, 															{
																"box" : 																{
																	"id" : "obj-19",
																	"maxclass" : "newobj",
																	"numinlets" : 2,
																	"numoutlets" : 1,
																	"outlettype" : [ "" ],
																	"patching_rect" : [ 49.0, 332.0, 56.0, 22.0 ],
																	"style" : "",
																	"text" : "pack 1 1"
																}

															}
, 															{
																"box" : 																{
																	"id" : "obj-20",
																	"maxclass" : "newobj",
																	"numinlets" : 1,
																	"numoutlets" : 2,
																	"outlettype" : [ "int", "int" ],
																	"patching_rect" : [ 48.541687, 217.0, 68.416626, 22.0 ],
																	"style" : "",
																	"text" : "unpack"
																}

															}
, 															{
																"box" : 																{
																	"comment" : "",
																	"id" : "obj-23",
																	"index" : 1,
																	"maxclass" : "outlet",
																	"numinlets" : 1,
																	"numoutlets" : 0,
																	"patching_rect" : [ 49.0, 404.0, 30.0, 30.0 ],
																	"style" : ""
																}

															}
, 															{
																"box" : 																{
																	"comment" : "",
																	"id" : "obj-178",
																	"index" : 1,
																	"maxclass" : "inlet",
																	"numinlets" : 0,
																	"numoutlets" : 1,
																	"outlettype" : [ "" ],
																	"patching_rect" : [ 50.0, 40.0, 30.0, 30.0 ],
																	"style" : ""
																}

															}
, 															{
																"box" : 																{
																	"comment" : "",
																	"id" : "obj-179",
																	"index" : 2,
																	"maxclass" : "inlet",
																	"numinlets" : 0,
																	"numoutlets" : 1,
																	"outlettype" : [ "" ],
																	"patching_rect" : [ 128.5, 40.0, 30.0, 30.0 ],
																	"style" : ""
																}

															}
 ],
														"lines" : [ 															{
																"patchline" : 																{
																	"destination" : [ "obj-14", 0 ],
																	"midpoints" : [ 206.5, 166.5, 138.0, 166.5 ],
																	"source" : [ "obj-10", 1 ]
																}

															}
, 															{
																"patchline" : 																{
																	"destination" : [ "obj-8", 0 ],
																	"source" : [ "obj-10", 0 ]
																}

															}
, 															{
																"patchline" : 																{
																	"destination" : [ "obj-10", 0 ],
																	"source" : [ "obj-11", 0 ]
																}

															}
, 															{
																"patchline" : 																{
																	"destination" : [ "obj-8", 0 ],
																	"midpoints" : [ 242.5, 138.0, 138.0, 138.0 ],
																	"source" : [ "obj-11", 1 ]
																}

															}
, 															{
																"patchline" : 																{
																	"destination" : [ "obj-11", 0 ],
																	"midpoints" : [ 231.5, 76.5, 138.0, 76.5 ],
																	"source" : [ "obj-12", 0 ]
																}

															}
, 															{
																"patchline" : 																{
																	"destination" : [ "obj-12", 0 ],
																	"source" : [ "obj-13", 0 ]
																}

															}
, 															{
																"patchline" : 																{
																	"destination" : [ "obj-20", 0 ],
																	"midpoints" : [ 138.0, 203.5, 58.041687, 203.5 ],
																	"source" : [ "obj-14", 0 ]
																}

															}
, 															{
																"patchline" : 																{
																	"destination" : [ "obj-5", 1 ],
																	"midpoints" : [ 176.833252, 249.0, 176.833252, 249.0 ],
																	"source" : [ "obj-14", 2 ]
																}

															}
, 															{
																"patchline" : 																{
																	"destination" : [ "obj-6", 2 ],
																	"source" : [ "obj-14", 1 ]
																}

															}
, 															{
																"patchline" : 																{
																	"destination" : [ "obj-3", 0 ],
																	"source" : [ "obj-178", 0 ]
																}

															}
, 															{
																"patchline" : 																{
																	"destination" : [ "obj-11", 0 ],
																	"source" : [ "obj-179", 0 ]
																}

															}
, 															{
																"patchline" : 																{
																	"destination" : [ "obj-23", 0 ],
																	"source" : [ "obj-18", 0 ]
																}

															}
, 															{
																"patchline" : 																{
																	"destination" : [ "obj-1", 0 ],
																	"midpoints" : [ 58.5, 358.5, 190.0, 358.5 ],
																	"order" : 0,
																	"source" : [ "obj-19", 0 ]
																}

															}
, 															{
																"patchline" : 																{
																	"destination" : [ "obj-18", 0 ],
																	"order" : 1,
																	"source" : [ "obj-19", 0 ]
																}

															}
, 															{
																"patchline" : 																{
																	"destination" : [ "obj-6", 1 ],
																	"source" : [ "obj-20", 1 ]
																}

															}
, 															{
																"patchline" : 																{
																	"destination" : [ "obj-6", 0 ],
																	"source" : [ "obj-20", 0 ]
																}

															}
, 															{
																"patchline" : 																{
																	"destination" : [ "obj-20", 0 ],
																	"source" : [ "obj-3", 0 ]
																}

															}
, 															{
																"patchline" : 																{
																	"destination" : [ "obj-19", 1 ],
																	"source" : [ "obj-4", 1 ]
																}

															}
, 															{
																"patchline" : 																{
																	"destination" : [ "obj-5", 0 ],
																	"source" : [ "obj-4", 0 ]
																}

															}
, 															{
																"patchline" : 																{
																	"destination" : [ "obj-19", 0 ],
																	"source" : [ "obj-5", 0 ]
																}

															}
, 															{
																"patchline" : 																{
																	"destination" : [ "obj-4", 0 ],
																	"source" : [ "obj-6", 0 ]
																}

															}
, 															{
																"patchline" : 																{
																	"destination" : [ "obj-14", 0 ],
																	"source" : [ "obj-8", 0 ]
																}

															}
 ]
													}
,
													"patching_rect" : [ 20.0, 134.0, 142.0, 22.0 ],
													"saved_object_attributes" : 													{
														"description" : "",
														"digest" : "",
														"globalpatchername" : "",
														"style" : "",
														"tags" : ""
													}
,
													"style" : "",
													"text" : "p size_projwindow"
												}

											}
, 											{
												"box" : 												{
													"comment" : "",
													"id" : "obj-23",
													"index" : 2,
													"maxclass" : "outlet",
													"numinlets" : 1,
													"numoutlets" : 0,
													"patching_rect" : [ 443.0, 395.0, 28.0, 28.0 ],
													"style" : ""
												}

											}
, 											{
												"box" : 												{
													"fontsize" : 12.0,
													"id" : "obj-21",
													"maxclass" : "newobj",
													"numinlets" : 2,
													"numoutlets" : 2,
													"outlettype" : [ "bang", "" ],
													"patching_rect" : [ 126.0, 86.0, 36.0, 22.0 ],
													"style" : "",
													"text" : "sel 0"
												}

											}
, 											{
												"box" : 												{
													"bgcolor" : [ 0.317647, 0.654902, 0.976471, 1.0 ],
													"id" : "obj-16",
													"maxclass" : "newobj",
													"numinlets" : 1,
													"numoutlets" : 0,
													"patching_rect" : [ 31.0, 207.0, 59.0, 22.0 ],
													"style" : "",
													"text" : "print size"
												}

											}
, 											{
												"box" : 												{
													"fontsize" : 12.0,
													"id" : "obj-14",
													"maxclass" : "newobj",
													"numinlets" : 1,
													"numoutlets" : 2,
													"outlettype" : [ "bang", "int" ],
													"patching_rect" : [ 143.0, 228.0, 49.0, 22.0 ],
													"style" : "",
													"text" : "t b i"
												}

											}
, 											{
												"box" : 												{
													"id" : "obj-11",
													"maxclass" : "newobj",
													"numinlets" : 0,
													"numoutlets" : 1,
													"outlettype" : [ "" ],
													"patching_rect" : [ 20.0, 22.0, 81.0, 22.0 ],
													"style" : "",
													"text" : "r #1_dim_mx"
												}

											}
, 											{
												"box" : 												{
													"fontsize" : 12.0,
													"id" : "obj-10",
													"maxclass" : "newobj",
													"numinlets" : 1,
													"numoutlets" : 2,
													"outlettype" : [ "int", "int" ],
													"patching_rect" : [ 143.0, 200.0, 96.0, 22.0 ],
													"style" : "",
													"text" : "unpack 320 240"
												}

											}
, 											{
												"box" : 												{
													"fontname" : "Arial",
													"fontsize" : 12.0,
													"id" : "obj-1",
													"maxclass" : "newobj",
													"numinlets" : 1,
													"numoutlets" : 2,
													"outlettype" : [ "bang", "int" ],
													"patching_rect" : [ 389.0, 86.0, 47.0, 22.0 ],
													"style" : "",
													"text" : "t b i"
												}

											}
, 											{
												"box" : 												{
													"fontname" : "Arial",
													"fontsize" : 12.0,
													"id" : "obj-2",
													"maxclass" : "newobj",
													"numinlets" : 1,
													"numoutlets" : 3,
													"outlettype" : [ "", "int", "int" ],
													"patching_rect" : [ 389.0, 59.0, 64.0, 22.0 ],
													"style" : "",
													"text" : "change -1"
												}

											}
, 											{
												"box" : 												{
													"fontname" : "Arial",
													"fontsize" : 12.0,
													"id" : "obj-4",
													"maxclass" : "newobj",
													"numinlets" : 1,
													"numoutlets" : 2,
													"outlettype" : [ "bang", "int" ],
													"patching_rect" : [ 217.0, 86.0, 47.0, 22.0 ],
													"style" : "",
													"text" : "t b i"
												}

											}
, 											{
												"box" : 												{
													"fontname" : "Arial",
													"fontsize" : 12.0,
													"id" : "obj-5",
													"maxclass" : "newobj",
													"numinlets" : 1,
													"numoutlets" : 3,
													"outlettype" : [ "", "int", "int" ],
													"patching_rect" : [ 217.0, 59.0, 64.0, 22.0 ],
													"style" : "",
													"text" : "change -1"
												}

											}
, 											{
												"box" : 												{
													"fontname" : "Arial",
													"fontsize" : 12.0,
													"id" : "obj-6",
													"maxclass" : "newobj",
													"numinlets" : 2,
													"numoutlets" : 1,
													"outlettype" : [ "int" ],
													"patching_rect" : [ 173.0, 320.0, 35.0, 22.0 ],
													"style" : "",
													"text" : "+"
												}

											}
, 											{
												"box" : 												{
													"fontname" : "Arial",
													"fontsize" : 12.0,
													"id" : "obj-7",
													"maxclass" : "newobj",
													"numinlets" : 2,
													"numoutlets" : 1,
													"outlettype" : [ "int" ],
													"patching_rect" : [ 377.0, 320.0, 38.0, 22.0 ],
													"style" : "",
													"text" : "+"
												}

											}
, 											{
												"box" : 												{
													"fontname" : "Arial",
													"fontsize" : 12.0,
													"id" : "obj-8",
													"maxclass" : "newobj",
													"numinlets" : 1,
													"numoutlets" : 2,
													"outlettype" : [ "int", "bang" ],
													"patching_rect" : [ 173.0, 255.0, 35.0, 22.0 ],
													"style" : "",
													"text" : "t i b"
												}

											}
, 											{
												"box" : 												{
													"fontname" : "Arial",
													"fontsize" : 12.0,
													"id" : "obj-9",
													"maxclass" : "newobj",
													"numinlets" : 1,
													"numoutlets" : 2,
													"outlettype" : [ "int", "bang" ],
													"patching_rect" : [ 377.0, 255.0, 38.0, 22.0 ],
													"style" : "",
													"text" : "t i b"
												}

											}
, 											{
												"box" : 												{
													"fontname" : "Arial",
													"fontsize" : 12.0,
													"id" : "obj-12",
													"maxclass" : "newobj",
													"numinlets" : 2,
													"numoutlets" : 1,
													"outlettype" : [ "int" ],
													"patching_rect" : [ 396.0, 285.0, 40.0, 22.0 ],
													"style" : "",
													"text" : "1000"
												}

											}
, 											{
												"box" : 												{
													"fontname" : "Arial",
													"fontsize" : 12.0,
													"id" : "obj-13",
													"maxclass" : "newobj",
													"numinlets" : 2,
													"numoutlets" : 1,
													"outlettype" : [ "int" ],
													"patching_rect" : [ 189.0, 285.0, 75.0, 22.0 ],
													"style" : "",
													"text" : "600"
												}

											}
, 											{
												"box" : 												{
													"fontname" : "Arial",
													"fontsize" : 12.0,
													"id" : "obj-15",
													"maxclass" : "newobj",
													"numinlets" : 5,
													"numoutlets" : 1,
													"outlettype" : [ "" ],
													"patching_rect" : [ 143.0, 356.0, 253.0, 22.0 ],
													"style" : "",
													"text" : "pack rect 1280 20 1440 140"
												}

											}
, 											{
												"box" : 												{
													"comment" : "",
													"id" : "obj-17",
													"index" : 3,
													"maxclass" : "inlet",
													"numinlets" : 0,
													"numoutlets" : 1,
													"outlettype" : [ "" ],
													"patching_rect" : [ 389.0, 22.0, 32.0, 32.0 ],
													"style" : ""
												}

											}
, 											{
												"box" : 												{
													"comment" : "",
													"id" : "obj-18",
													"index" : 1,
													"maxclass" : "inlet",
													"numinlets" : 0,
													"numoutlets" : 1,
													"outlettype" : [ "" ],
													"patching_rect" : [ 126.0, 22.0, 32.0, 32.0 ],
													"style" : ""
												}

											}
, 											{
												"box" : 												{
													"comment" : "",
													"id" : "obj-19",
													"index" : 2,
													"maxclass" : "inlet",
													"numinlets" : 0,
													"numoutlets" : 1,
													"outlettype" : [ "" ],
													"patching_rect" : [ 217.0, 22.0, 32.0, 32.0 ],
													"style" : ""
												}

											}
, 											{
												"box" : 												{
													"comment" : "",
													"id" : "obj-20",
													"index" : 1,
													"maxclass" : "outlet",
													"numinlets" : 1,
													"numoutlets" : 0,
													"patching_rect" : [ 143.0, 395.0, 28.0, 28.0 ],
													"style" : ""
												}

											}
 ],
										"lines" : [ 											{
												"patchline" : 												{
													"destination" : [ "obj-10", 0 ],
													"midpoints" : [ 398.5, 190.0, 152.5, 190.0 ],
													"source" : [ "obj-1", 0 ]
												}

											}
, 											{
												"patchline" : 												{
													"destination" : [ "obj-12", 1 ],
													"source" : [ "obj-1", 1 ]
												}

											}
, 											{
												"patchline" : 												{
													"destination" : [ "obj-14", 0 ],
													"source" : [ "obj-10", 0 ]
												}

											}
, 											{
												"patchline" : 												{
													"destination" : [ "obj-9", 0 ],
													"midpoints" : [ 229.5, 238.0, 386.5, 238.0 ],
													"source" : [ "obj-10", 1 ]
												}

											}
, 											{
												"patchline" : 												{
													"destination" : [ "obj-94", 0 ],
													"source" : [ "obj-11", 0 ]
												}

											}
, 											{
												"patchline" : 												{
													"destination" : [ "obj-15", 2 ],
													"midpoints" : [ 405.5, 313.0, 269.5, 313.0 ],
													"order" : 1,
													"source" : [ "obj-12", 0 ]
												}

											}
, 											{
												"patchline" : 												{
													"destination" : [ "obj-7", 1 ],
													"order" : 0,
													"source" : [ "obj-12", 0 ]
												}

											}
, 											{
												"patchline" : 												{
													"destination" : [ "obj-15", 1 ],
													"midpoints" : [ 198.5, 313.0, 211.0, 313.0 ],
													"order" : 0,
													"source" : [ "obj-13", 0 ]
												}

											}
, 											{
												"patchline" : 												{
													"destination" : [ "obj-6", 1 ],
													"order" : 1,
													"source" : [ "obj-13", 0 ]
												}

											}
, 											{
												"patchline" : 												{
													"destination" : [ "obj-15", 0 ],
													"source" : [ "obj-14", 0 ]
												}

											}
, 											{
												"patchline" : 												{
													"destination" : [ "obj-8", 0 ],
													"source" : [ "obj-14", 1 ]
												}

											}
, 											{
												"patchline" : 												{
													"destination" : [ "obj-20", 0 ],
													"source" : [ "obj-15", 0 ]
												}

											}
, 											{
												"patchline" : 												{
													"destination" : [ "obj-2", 0 ],
													"source" : [ "obj-17", 0 ]
												}

											}
, 											{
												"patchline" : 												{
													"destination" : [ "obj-21", 0 ],
													"source" : [ "obj-18", 0 ]
												}

											}
, 											{
												"patchline" : 												{
													"destination" : [ "obj-5", 0 ],
													"source" : [ "obj-19", 0 ]
												}

											}
, 											{
												"patchline" : 												{
													"destination" : [ "obj-1", 0 ],
													"source" : [ "obj-2", 0 ]
												}

											}
, 											{
												"patchline" : 												{
													"destination" : [ "obj-94", 1 ],
													"source" : [ "obj-21", 1 ]
												}

											}
, 											{
												"patchline" : 												{
													"destination" : [ "obj-10", 0 ],
													"midpoints" : [ 226.5, 185.0, 152.5, 185.0 ],
													"source" : [ "obj-4", 0 ]
												}

											}
, 											{
												"patchline" : 												{
													"destination" : [ "obj-13", 1 ],
													"source" : [ "obj-4", 1 ]
												}

											}
, 											{
												"patchline" : 												{
													"destination" : [ "obj-4", 0 ],
													"source" : [ "obj-5", 0 ]
												}

											}
, 											{
												"patchline" : 												{
													"destination" : [ "obj-15", 3 ],
													"midpoints" : [ 182.5, 348.5, 328.0, 348.5 ],
													"source" : [ "obj-6", 0 ]
												}

											}
, 											{
												"patchline" : 												{
													"destination" : [ "obj-15", 4 ],
													"source" : [ "obj-7", 0 ]
												}

											}
, 											{
												"patchline" : 												{
													"destination" : [ "obj-13", 0 ],
													"source" : [ "obj-8", 1 ]
												}

											}
, 											{
												"patchline" : 												{
													"destination" : [ "obj-6", 0 ],
													"source" : [ "obj-8", 0 ]
												}

											}
, 											{
												"patchline" : 												{
													"destination" : [ "obj-12", 0 ],
													"source" : [ "obj-9", 1 ]
												}

											}
, 											{
												"patchline" : 												{
													"destination" : [ "obj-7", 0 ],
													"source" : [ "obj-9", 0 ]
												}

											}
, 											{
												"patchline" : 												{
													"destination" : [ "obj-10", 0 ],
													"order" : 1,
													"source" : [ "obj-94", 1 ]
												}

											}
, 											{
												"patchline" : 												{
													"destination" : [ "obj-16", 0 ],
													"order" : 2,
													"source" : [ "obj-94", 1 ]
												}

											}
, 											{
												"patchline" : 												{
													"destination" : [ "obj-23", 0 ],
													"midpoints" : [ 152.5, 170.5, 452.5, 170.5 ],
													"order" : 0,
													"source" : [ "obj-94", 1 ]
												}

											}
 ]
									}
,
									"patching_rect" : [ 141.0, 203.0, 131.0, 19.0 ],
									"saved_object_attributes" : 									{
										"description" : "",
										"digest" : "",
										"globalpatchername" : "",
										"style" : "",
										"tags" : ""
									}
,
									"style" : "",
									"text" : "p"
								}

							}
, 							{
								"box" : 								{
									"bgcolor" : [ 0.866667, 0.866667, 0.866667, 1.0 ],
									"fontname" : "Arial",
									"fontsize" : 9.0,
									"htricolor" : [ 0.87, 0.82, 0.24, 1.0 ],
									"id" : "obj-6",
									"maxclass" : "number",
									"numinlets" : 1,
									"numoutlets" : 2,
									"outlettype" : [ "", "bang" ],
									"parameter_enable" : 0,
									"patching_rect" : [ 78.0, 81.0, 53.0, 19.0 ],
									"presentation" : 1,
									"presentation_rect" : [ 40.0, 26.0, 53.0, 19.0 ],
									"style" : "",
									"textcolor" : [ 0.0, 0.0, 0.0, 1.0 ],
									"tricolor" : [ 0.75, 0.75, 0.75, 1.0 ],
									"triscale" : 0.9
								}

							}
, 							{
								"box" : 								{
									"bgcolor" : [ 0.866667, 0.866667, 0.866667, 1.0 ],
									"fontname" : "Arial",
									"fontsize" : 9.0,
									"htricolor" : [ 0.87, 0.82, 0.24, 1.0 ],
									"id" : "obj-7",
									"maxclass" : "number",
									"numinlets" : 1,
									"numoutlets" : 2,
									"outlettype" : [ "", "bang" ],
									"parameter_enable" : 0,
									"patching_rect" : [ 78.0, 36.0, 37.0, 19.0 ],
									"presentation" : 1,
									"presentation_rect" : [ 39.0, 9.0, 37.0, 19.0 ],
									"style" : "",
									"textcolor" : [ 0.0, 0.0, 0.0, 1.0 ],
									"tricolor" : [ 0.75, 0.75, 0.75, 1.0 ],
									"triscale" : 0.9
								}

							}
, 							{
								"box" : 								{
									"fontname" : "Arial",
									"fontsize" : 9.0,
									"id" : "obj-8",
									"maxclass" : "message",
									"numinlets" : 2,
									"numoutlets" : 1,
									"outlettype" : [ "" ],
									"patching_rect" : [ 120.0, 36.0, 16.0, 19.0 ],
									"presentation" : 1,
									"presentation_rect" : [ 77.0, 9.0, 16.0, 19.0 ],
									"style" : "",
									"text" : "0"
								}

							}
, 							{
								"box" : 								{
									"bgcolor" : [ 1.0, 0.360784, 0.682353, 1.0 ],
									"bgfillcolor_angle" : 270.0,
									"bgfillcolor_autogradient" : 0.79,
									"bgfillcolor_color" : [ 0.290196, 0.309804, 0.301961, 1.0 ],
									"bgfillcolor_color1" : [ 1.0, 0.360784, 0.682353, 1.0 ],
									"bgfillcolor_color2" : [ 0.685, 0.685, 0.685, 1.0 ],
									"bgfillcolor_proportion" : 0.39,
									"bgfillcolor_type" : "gradient",
									"fontname" : "Arial",
									"fontsize" : 9.0,
									"gradient" : 0,
									"id" : "obj-9",
									"maxclass" : "message",
									"numinlets" : 2,
									"numoutlets" : 1,
									"outlettype" : [ "" ],
									"patching_rect" : [ 136.0, 36.0, 20.0, 19.0 ],
									"presentation" : 1,
									"presentation_rect" : [ 93.0, 9.0, 20.0, 19.0 ],
									"style" : "",
									"text" : "22",
									"textcolor" : [ 0.0, 0.0, 0.0, 1.0 ]
								}

							}
, 							{
								"box" : 								{
									"fontname" : "Arial",
									"fontsize" : 9.0,
									"id" : "obj-10",
									"maxclass" : "message",
									"numinlets" : 2,
									"numoutlets" : 1,
									"outlettype" : [ "" ],
									"patching_rect" : [ 167.0, 81.0, 34.0, 19.0 ],
									"presentation" : 1,
									"presentation_rect" : [ 127.0, 26.0, 34.0, 19.0 ],
									"style" : "",
									"text" : "1280"
								}

							}
, 							{
								"box" : 								{
									"fontname" : "Arial",
									"fontsize" : 9.0,
									"id" : "obj-11",
									"maxclass" : "message",
									"numinlets" : 2,
									"numoutlets" : 1,
									"outlettype" : [ "" ],
									"patching_rect" : [ 201.0, 81.0, 34.0, 19.0 ],
									"presentation" : 1,
									"presentation_rect" : [ 161.0, 26.0, 34.0, 19.0 ],
									"style" : "",
									"text" : "1680"
								}

							}
, 							{
								"box" : 								{
									"bgcolor" : [ 1.0, 0.360784, 0.682353, 1.0 ],
									"bgfillcolor_angle" : 270.0,
									"bgfillcolor_autogradient" : 0.79,
									"bgfillcolor_color" : [ 0.290196, 0.309804, 0.301961, 1.0 ],
									"bgfillcolor_color1" : [ 1.0, 0.360784, 0.682353, 1.0 ],
									"bgfillcolor_color2" : [ 0.685, 0.685, 0.685, 1.0 ],
									"bgfillcolor_proportion" : 0.39,
									"bgfillcolor_type" : "gradient",
									"fontname" : "Arial",
									"fontsize" : 9.0,
									"gradient" : 0,
									"id" : "obj-13",
									"maxclass" : "message",
									"numinlets" : 2,
									"numoutlets" : 1,
									"outlettype" : [ "" ],
									"patching_rect" : [ 134.0, 81.0, 34.0, 19.0 ],
									"presentation" : 1,
									"presentation_rect" : [ 93.0, 26.0, 34.0, 19.0 ],
									"style" : "",
									"text" : "800",
									"textcolor" : [ 0.0, 0.0, 0.0, 1.0 ]
								}

							}
, 							{
								"box" : 								{
									"allowdrag" : 0,
									"fontsize" : 9.0,
									"id" : "obj-14",
									"items" : [ 1680, ",", 1024, ",", 960, ",", 640, ",", 480, ",", 320, ",", 160 ],
									"labelclick" : 1,
									"maxclass" : "umenu",
									"numinlets" : 1,
									"numoutlets" : 3,
									"outlettype" : [ "int", "", "" ],
									"parameter_enable" : 0,
									"patching_rect" : [ 126.5, 120.0, 48.0, 19.0 ],
									"presentation" : 1,
									"presentation_rect" : [ 54.0, 43.0, 48.0, 19.0 ],
									"style" : ""
								}

							}
, 							{
								"box" : 								{
									"fontname" : "Arial",
									"fontsize" : 9.0,
									"hidden" : 1,
									"id" : "obj-15",
									"maxclass" : "newobj",
									"numinlets" : 1,
									"numoutlets" : 0,
									"patcher" : 									{
										"fileversion" : 1,
										"appversion" : 										{
											"major" : 7,
											"minor" : 3,
											"revision" : 4,
											"architecture" : "x64",
											"modernui" : 1
										}
,
										"rect" : [ 34.0, 79.0, 600.0, 426.0 ],
										"bglocked" : 0,
										"openinpresentation" : 0,
										"default_fontsize" : 12.0,
										"default_fontface" : 0,
										"default_fontname" : "Arial",
										"gridonopen" : 1,
										"gridsize" : [ 15.0, 15.0 ],
										"gridsnaponopen" : 1,
										"objectsnaponopen" : 1,
										"statusbarvisible" : 2,
										"toolbarvisible" : 1,
										"lefttoolbarpinned" : 0,
										"toptoolbarpinned" : 0,
										"righttoolbarpinned" : 0,
										"bottomtoolbarpinned" : 0,
										"toolbars_unpinned_last_save" : 0,
										"tallnewobj" : 0,
										"boxanimatetime" : 200,
										"enablehscroll" : 1,
										"enablevscroll" : 1,
										"devicewidth" : 0.0,
										"description" : "",
										"digest" : "",
										"tags" : "",
										"style" : "",
										"subpatcher_template" : "",
										"boxes" : [ 											{
												"box" : 												{
													"fontname" : "Arial",
													"fontsize" : 12.0,
													"id" : "obj-1",
													"linecount" : 2,
													"maxclass" : "message",
													"numinlets" : 2,
													"numoutlets" : 1,
													"outlettype" : [ "" ],
													"patching_rect" : [ 50.0, 133.0, 121.0, 35.0 ],
													"style" : "",
													"text" : ";\rmax showmenubar"
												}

											}
, 											{
												"box" : 												{
													"fontname" : "Arial",
													"fontsize" : 12.0,
													"id" : "obj-2",
													"linecount" : 2,
													"maxclass" : "message",
													"numinlets" : 2,
													"numoutlets" : 1,
													"outlettype" : [ "" ],
													"patching_rect" : [ 66.5, 87.0, 115.0, 35.0 ],
													"style" : "",
													"text" : ";\rmax hidemenubar"
												}

											}
, 											{
												"box" : 												{
													"fontname" : "Arial",
													"fontsize" : 12.0,
													"id" : "obj-3",
													"maxclass" : "newobj",
													"numinlets" : 3,
													"numoutlets" : 3,
													"outlettype" : [ "bang", "bang", "" ],
													"patching_rect" : [ 50.0, 50.0, 52.0, 22.0 ],
													"style" : "",
													"text" : "sel 0 1"
												}

											}
, 											{
												"box" : 												{
													"comment" : "",
													"id" : "obj-4",
													"index" : 1,
													"maxclass" : "inlet",
													"numinlets" : 0,
													"numoutlets" : 1,
													"outlettype" : [ "int" ],
													"patching_rect" : [ 50.0, 12.0, 34.0, 34.0 ],
													"style" : ""
												}

											}
 ],
										"lines" : [ 											{
												"patchline" : 												{
													"destination" : [ "obj-1", 0 ],
													"source" : [ "obj-3", 0 ]
												}

											}
, 											{
												"patchline" : 												{
													"destination" : [ "obj-2", 0 ],
													"source" : [ "obj-3", 1 ]
												}

											}
, 											{
												"patchline" : 												{
													"destination" : [ "obj-3", 0 ],
													"source" : [ "obj-4", 0 ]
												}

											}
 ]
									}
,
									"patching_rect" : [ 47.0, 309.0, 56.0, 19.0 ],
									"saved_object_attributes" : 									{
										"description" : "",
										"digest" : "",
										"globalpatchername" : "",
										"style" : "",
										"tags" : ""
									}
,
									"style" : "",
									"text" : "p menubar"
								}

							}
, 							{
								"box" : 								{
									"fontname" : "Arial",
									"fontsize" : 9.0,
									"hidden" : 1,
									"id" : "obj-16",
									"maxclass" : "newobj",
									"numinlets" : 4,
									"numoutlets" : 0,
									"patching_rect" : [ 554.0, 33.0, 110.0, 19.0 ],
									"style" : "",
									"text" : "bgcolor 0.32 0.71 0.32 1."
								}

							}
, 							{
								"box" : 								{
									"comment" : "",
									"hidden" : 1,
									"id" : "obj-17",
									"index" : 1,
									"maxclass" : "outlet",
									"numinlets" : 1,
									"numoutlets" : 0,
									"patching_rect" : [ 70.5, 255.0, 27.0, 27.0 ],
									"style" : ""
								}

							}
, 							{
								"box" : 								{
									"fontname" : "Arial",
									"fontsize" : 9.0,
									"id" : "obj-18",
									"maxclass" : "message",
									"numinlets" : 2,
									"numoutlets" : 1,
									"outlettype" : [ "" ],
									"patching_rect" : [ 70.5, 203.0, 68.0, 19.0 ],
									"style" : "",
									"text" : "fullscreen $1"
								}

							}
, 							{
								"box" : 								{
									"id" : "obj-19",
									"maxclass" : "toggle",
									"numinlets" : 1,
									"numoutlets" : 1,
									"outlettype" : [ "int" ],
									"parameter_enable" : 0,
									"patching_rect" : [ 47.5, 161.0, 15.0, 15.0 ],
									"presentation" : 1,
									"presentation_rect" : [ 139.5, 62.0, 15.0, 15.0 ],
									"style" : ""
								}

							}
, 							{
								"box" : 								{
									"fontname" : "Arial",
									"fontsize" : 9.0,
									"hidden" : 1,
									"id" : "obj-20",
									"maxclass" : "newobj",
									"numinlets" : 2,
									"numoutlets" : 2,
									"outlettype" : [ "bang", "" ],
									"patching_rect" : [ 485.0, 114.0, 35.0, 19.0 ],
									"style" : "",
									"text" : "sel 27"
								}

							}
, 							{
								"box" : 								{
									"fontname" : "Arial",
									"fontsize" : 9.0,
									"hidden" : 1,
									"id" : "obj-21",
									"maxclass" : "newobj",
									"numinlets" : 0,
									"numoutlets" : 4,
									"outlettype" : [ "int", "int", "int", "int" ],
									"patching_rect" : [ 443.0, 114.0, 40.0, 19.0 ],
									"style" : "",
									"text" : "key"
								}

							}
, 							{
								"box" : 								{
									"fontname" : "Arial",
									"fontsize" : 9.0,
									"id" : "obj-22",
									"maxclass" : "comment",
									"numinlets" : 1,
									"numoutlets" : 0,
									"patching_rect" : [ 46.0, 36.0, 29.0, 17.0 ],
									"presentation" : 1,
									"presentation_rect" : [ 8.0, 9.0, 29.0, 17.0 ],
									"style" : "",
									"text" : "TOP",
									"textcolor" : [ 1.0, 0.890196, 0.090196, 1.0 ]
								}

							}
, 							{
								"box" : 								{
									"fontname" : "Arial",
									"fontsize" : 9.0,
									"id" : "obj-23",
									"maxclass" : "comment",
									"numinlets" : 1,
									"numoutlets" : 0,
									"patching_rect" : [ 62.0, 161.0, 132.0, 17.0 ],
									"presentation" : 1,
									"presentation_rect" : [ 8.0, 62.0, 132.0, 17.0 ],
									"style" : "",
									"text" : "press escape for fullscreen",
									"textcolor" : [ 1.0, 0.890196, 0.090196, 1.0 ]
								}

							}
 ],
						"lines" : [ 							{
								"patchline" : 								{
									"destination" : [ "obj-14", 0 ],
									"hidden" : 1,
									"midpoints" : [ 432.5, 112.0, 136.0, 112.0 ],
									"source" : [ "obj-1", 0 ]
								}

							}
, 							{
								"patchline" : 								{
									"destination" : [ "obj-6", 0 ],
									"hidden" : 1,
									"midpoints" : [ 500.5, 79.5, 87.5, 79.5 ],
									"source" : [ "obj-1", 2 ]
								}

							}
, 							{
								"patchline" : 								{
									"destination" : [ "obj-7", 0 ],
									"hidden" : 1,
									"midpoints" : [ 466.5, 89.0, 307.5, 89.0, 307.5, 36.0, 87.5, 36.0 ],
									"source" : [ "obj-1", 1 ]
								}

							}
, 							{
								"patchline" : 								{
									"destination" : [ "obj-6", 0 ],
									"hidden" : 1,
									"source" : [ "obj-10", 0 ]
								}

							}
, 							{
								"patchline" : 								{
									"destination" : [ "obj-6", 0 ],
									"hidden" : 1,
									"source" : [ "obj-11", 0 ]
								}

							}
, 							{
								"patchline" : 								{
									"destination" : [ "obj-6", 0 ],
									"hidden" : 1,
									"source" : [ "obj-13", 0 ]
								}

							}
, 							{
								"patchline" : 								{
									"destination" : [ "obj-5", 0 ],
									"hidden" : 1,
									"source" : [ "obj-14", 1 ]
								}

							}
, 							{
								"patchline" : 								{
									"destination" : [ "obj-17", 0 ],
									"hidden" : 1,
									"source" : [ "obj-18", 0 ]
								}

							}
, 							{
								"patchline" : 								{
									"destination" : [ "obj-15", 0 ],
									"hidden" : 1,
									"order" : 1,
									"source" : [ "obj-19", 0 ]
								}

							}
, 							{
								"patchline" : 								{
									"destination" : [ "obj-18", 0 ],
									"order" : 0,
									"source" : [ "obj-19", 0 ]
								}

							}
, 							{
								"patchline" : 								{
									"destination" : [ "obj-19", 0 ],
									"hidden" : 1,
									"midpoints" : [ 494.5, 143.0, 56.5, 143.0 ],
									"source" : [ "obj-20", 0 ]
								}

							}
, 							{
								"patchline" : 								{
									"destination" : [ "obj-20", 0 ],
									"hidden" : 1,
									"midpoints" : [ 484.0, 131.0, 484.0, 116.0 ],
									"source" : [ "obj-21", 0 ]
								}

							}
, 							{
								"patchline" : 								{
									"destination" : [ "obj-7", 0 ],
									"hidden" : 1,
									"source" : [ "obj-24", 0 ]
								}

							}
, 							{
								"patchline" : 								{
									"destination" : [ "obj-1", 0 ],
									"hidden" : 1,
									"source" : [ "obj-4", 0 ]
								}

							}
, 							{
								"patchline" : 								{
									"destination" : [ "obj-17", 0 ],
									"hidden" : 1,
									"midpoints" : [ 150.5, 245.0, 80.0, 245.0 ],
									"source" : [ "obj-5", 0 ]
								}

							}
, 							{
								"patchline" : 								{
									"destination" : [ "obj-25", 0 ],
									"source" : [ "obj-5", 1 ]
								}

							}
, 							{
								"patchline" : 								{
									"destination" : [ "obj-5", 1 ],
									"hidden" : 1,
									"midpoints" : [ 87.5, 105.5, 206.5, 105.5 ],
									"source" : [ "obj-6", 0 ]
								}

							}
, 							{
								"patchline" : 								{
									"destination" : [ "obj-5", 2 ],
									"hidden" : 1,
									"midpoints" : [ 87.5, 65.0, 262.5, 65.0 ],
									"source" : [ "obj-7", 0 ]
								}

							}
, 							{
								"patchline" : 								{
									"destination" : [ "obj-7", 0 ],
									"hidden" : 1,
									"source" : [ "obj-8", 0 ]
								}

							}
, 							{
								"patchline" : 								{
									"destination" : [ "obj-7", 0 ],
									"hidden" : 1,
									"source" : [ "obj-9", 0 ]
								}

							}
 ]
					}
,
					"patching_rect" : [ 176.0, 208.0, 78.0, 20.0 ],
					"presentation" : 1,
					"presentation_rect" : [ 1.0, 230.0, 68.0, 20.0 ],
					"saved_object_attributes" : 					{
						"description" : "",
						"digest" : "",
						"globalpatchername" : "",
						"style" : "",
						"tags" : ""
					}
,
					"style" : "",
					"text" : "p sizewindow",
					"textcolor" : [ 0.0, 0.0, 0.0, 1.0 ]
				}

			}
, 			{
				"box" : 				{
					"id" : "obj-31",
					"maxclass" : "toggle",
					"numinlets" : 1,
					"numoutlets" : 1,
					"outlettype" : [ "int" ],
					"parameter_enable" : 0,
					"patching_rect" : [ 1036.0, 229.0, 15.0, 15.0 ],
					"style" : ""
				}

			}
, 			{
				"box" : 				{
					"fontname" : "Arial",
					"fontsize" : 9.0,
					"id" : "obj-32",
					"maxclass" : "newobj",
					"numinlets" : 1,
					"numoutlets" : 0,
					"patching_rect" : [ 1036.0, 249.0, 67.0, 19.0 ],
					"style" : "",
					"text" : "s videodebug"
				}

			}
 ],
		"lines" : [ 			{
				"patchline" : 				{
					"destination" : [ "obj-15", 1 ],
					"order" : 4,
					"source" : [ "obj-11", 0 ]
				}

			}
, 			{
				"patchline" : 				{
					"destination" : [ "obj-2", 1 ],
					"order" : 1,
					"source" : [ "obj-11", 0 ]
				}

			}
, 			{
				"patchline" : 				{
					"destination" : [ "obj-26", 0 ],
					"order" : 5,
					"source" : [ "obj-11", 0 ]
				}

			}
, 			{
				"patchline" : 				{
					"destination" : [ "obj-3", 1 ],
					"order" : 2,
					"source" : [ "obj-11", 0 ]
				}

			}
, 			{
				"patchline" : 				{
					"destination" : [ "obj-4", 1 ],
					"order" : 3,
					"source" : [ "obj-11", 0 ]
				}

			}
, 			{
				"patchline" : 				{
					"destination" : [ "obj-6", 2 ],
					"order" : 0,
					"source" : [ "obj-11", 0 ]
				}

			}
, 			{
				"patchline" : 				{
					"destination" : [ "obj-6", 1 ],
					"source" : [ "obj-12", 0 ]
				}

			}
, 			{
				"patchline" : 				{
					"destination" : [ "obj-33", 0 ],
					"source" : [ "obj-15", 0 ]
				}

			}
, 			{
				"patchline" : 				{
					"destination" : [ "obj-20", 0 ],
					"hidden" : 1,
					"source" : [ "obj-16", 0 ]
				}

			}
, 			{
				"patchline" : 				{
					"destination" : [ "obj-33", 0 ],
					"source" : [ "obj-2", 0 ]
				}

			}
, 			{
				"patchline" : 				{
					"destination" : [ "obj-13", 1 ],
					"order" : 0,
					"source" : [ "obj-20", 0 ]
				}

			}
, 			{
				"patchline" : 				{
					"destination" : [ "obj-15", 0 ],
					"order" : 3,
					"source" : [ "obj-20", 0 ]
				}

			}
, 			{
				"patchline" : 				{
					"destination" : [ "obj-2", 0 ],
					"order" : 4,
					"source" : [ "obj-20", 0 ]
				}

			}
, 			{
				"patchline" : 				{
					"destination" : [ "obj-3", 0 ],
					"order" : 1,
					"source" : [ "obj-20", 0 ]
				}

			}
, 			{
				"patchline" : 				{
					"destination" : [ "obj-4", 0 ],
					"order" : 2,
					"source" : [ "obj-20", 0 ]
				}

			}
, 			{
				"patchline" : 				{
					"destination" : [ "obj-33", 0 ],
					"hidden" : 1,
					"source" : [ "obj-26", 0 ]
				}

			}
, 			{
				"patchline" : 				{
					"destination" : [ "obj-14", 0 ],
					"order" : 1,
					"source" : [ "obj-28", 0 ]
				}

			}
, 			{
				"patchline" : 				{
					"destination" : [ "obj-8", 0 ],
					"order" : 0,
					"source" : [ "obj-28", 0 ]
				}

			}
, 			{
				"patchline" : 				{
					"destination" : [ "obj-33", 0 ],
					"source" : [ "obj-3", 0 ]
				}

			}
, 			{
				"patchline" : 				{
					"destination" : [ "obj-32", 0 ],
					"source" : [ "obj-31", 0 ]
				}

			}
, 			{
				"patchline" : 				{
					"destination" : [ "obj-57", 0 ],
					"source" : [ "obj-37", 0 ]
				}

			}
, 			{
				"patchline" : 				{
					"destination" : [ "obj-33", 0 ],
					"source" : [ "obj-4", 0 ]
				}

			}
, 			{
				"patchline" : 				{
					"destination" : [ "obj-14", 0 ],
					"source" : [ "obj-5", 0 ]
				}

			}
, 			{
				"patchline" : 				{
					"destination" : [ "obj-33", 0 ],
					"source" : [ "obj-6", 0 ]
				}

			}
, 			{
				"patchline" : 				{
					"destination" : [ "obj-14", 0 ],
					"source" : [ "obj-7", 0 ]
				}

			}
 ],
		"dependency_cache" : [ 			{
				"name" : "VideoPlayerW212.maxpat",
				"bootpath" : "~/Music/Oraclette2/OMaxVideoW212/OMaxMaxVideo212",
				"patcherrelativepath" : ".",
				"type" : "JSON",
				"implicit" : 1
			}
, 			{
				"name" : "Recpt_OSCW212.maxpat",
				"bootpath" : "~/Music/Oraclette2/OMaxVideoW212/OMaxMaxVideo212",
				"patcherrelativepath" : ".",
				"type" : "JSON",
				"implicit" : 1
			}
, 			{
				"name" : "debug_videoplayer.maxpat",
				"bootpath" : "~/Music/Oraclette2/OMaxVideoW212/OMaxMaxVideo212",
				"patcherrelativepath" : ".",
				"type" : "JSON",
				"implicit" : 1
			}
, 			{
				"name" : "VideoNoirW212.maxpat",
				"bootpath" : "~/Music/Oraclette2/OMaxVideoW212/OMaxMaxVideo212",
				"patcherrelativepath" : ".",
				"type" : "JSON",
				"implicit" : 1
			}
, 			{
				"name" : "bc.autoname.js",
				"bootpath" : "~/Music/Oraclette2/OMaxVideoW212/OMaxMaxVideo212",
				"patcherrelativepath" : ".",
				"type" : "TEXT",
				"implicit" : 1
			}
, 			{
				"name" : "AcquisitionW212.maxpat",
				"bootpath" : "~/Music/Oraclette2/OMaxVideoW212/OMaxMaxVideo212",
				"patcherrelativepath" : ".",
				"type" : "JSON",
				"implicit" : 1
			}
, 			{
				"name" : "receive_OSCW209.maxpat",
				"bootpath" : "~/Music/Oraclette2/OMaxVideoW212/OMaxMaxVideo212",
				"patcherrelativepath" : ".",
				"type" : "JSON",
				"implicit" : 1
			}
, 			{
				"name" : "Ut_dim_NB.maxpat",
				"bootpath" : "~/Music/Oraclette2/OMaxVideoW212/OMaxMaxVideo212",
				"patcherrelativepath" : ".",
				"type" : "JSON",
				"implicit" : 1
			}
, 			{
				"name" : "Montage_MosaiK.maxpat",
				"bootpath" : "~/Music/Oraclette2/OMaxVideoW212/OMaxMaxVideo212",
				"patcherrelativepath" : ".",
				"type" : "JSON",
				"implicit" : 1
			}
, 			{
				"name" : "essai_effet2d.maxpat",
				"bootpath" : "~/Music/Oraclette2/OMaxVideoW212/OMaxMaxVideo212",
				"patcherrelativepath" : ".",
				"type" : "JSON",
				"implicit" : 1
			}
, 			{
				"name" : "Montage_MosaiK_matrix3.maxpat",
				"bootpath" : "~/Music/Oraclette2/OMaxVideoW212/OMaxMaxVideo212",
				"patcherrelativepath" : ".",
				"type" : "JSON",
				"implicit" : 1
			}
, 			{
				"name" : "Diago2.maxpat",
				"bootpath" : "~/Music/Oraclette2/OMaxVideoW212/OMaxMaxVideo212",
				"patcherrelativepath" : ".",
				"type" : "JSON",
				"implicit" : 1
			}
, 			{
				"name" : "VideoTricheW212.maxpat",
				"bootpath" : "~/Music/Oraclette2/OMaxVideoW212/OMaxMaxVideo212",
				"patcherrelativepath" : ".",
				"type" : "JSON",
				"implicit" : 1
			}
, 			{
				"name" : "pistetricheW212.maxpat",
				"bootpath" : "~/Music/Oraclette2/OMaxVideoW212/OMaxMaxVideo212",
				"patcherrelativepath" : ".",
				"type" : "JSON",
				"implicit" : 1
			}
, 			{
				"name" : "p_pistetriche.maxpat",
				"bootpath" : "~/Music/Oraclette2/OMaxVideoW212/OMaxMaxVideo212",
				"patcherrelativepath" : ".",
				"type" : "JSON",
				"implicit" : 1
			}
 ],
		"autosave" : 0
	}

}
